<svg height="64" viewBox="0 0 64 64" width="64" xmlns="http://www.w3.org/2000/svg"><g fill="none" fill-rule="evenodd"><path d="m29 47h6v11h-6z" fill="#d8d8d8"/><path d="m25 59h14v1h-14z" stroke="#979797" stroke-width="2"/><path d="m2 12.995507c0-1.6543728 1.33730974-2.995507 2.99593743-2.995507h54.00812517c1.6546105 0 2.9959374 1.3424683 2.9959374 2.995507v33.008986c0 1.6543728-1.3373097 2.995507-2.9959374 2.995507h-54.00812517c-1.65461055 0-2.99593743-1.3424683-2.99593743-2.995507z" fill="#868686"/><path d="m5 13h54v33h-54z" fill="#22ba8e"/><path d="m26.3 24.72c.0266668.2400012-.093332.4666656-.36.68-.4533356.3466684-.6933332.5333332-.72.56l-3.18 3.72 3.48 3.28c.4533356.4266688.68.8133316.68 1.16 0 .133334-.0266664.266666-.08.4-.2266678.5733362-.6466636.86-1.26.86-.2400012 0-.4866654-.0533328-.74-.16s-.3933332-.2399992-.42-.4-.0466666-.3333324-.06-.52c-.0133334-.133334-.0666662-.2466662-.16-.34l-2.56-2.32c-.6933368-.5733362-1.04-1.1533304-1.04-1.74 0-.5733362.3766629-1.2833291 1.13-2.13s1.5166628-1.6899958 2.29-2.53c.066667-.0800004.199999-.3266646.4-.74.1466674-.2933348.3333322-.4866662.56-.58.1466674-.0533336.3133324-.08.5-.08.3466684 0 .6833317.0933324 1.01.28s.5033332.3866656.53.6zm16.94 6.7-2.7 2.54c-.1066672.0933338-.16.3133316-.16.66-.0133334.266668-.1733318.466666-.48.6-.2533346.1066672-.4999988.16-.74.16-.6133364 0-1.0333322-.2866638-1.26-.86-.0533336-.133334-.08-.266666-.08-.4 0-.3466684.2266644-.7333312.68-1.16l3.48-3.28-3.18-3.72c-.0266668-.0266668-.2666644-.2133316-.72-.56-.2800014-.2133344-.4000002-.4399988-.36-.68.0266668-.2133344.2033317-.4133324.53-.6s.6633316-.28 1.01-.28c.1866676 0 .3533326.0266664.5.08.2266678.0933338.4133326.2799986.56.56.2266678.4533356.3599998.7066664.4.76.2266678.2933348 1.00666 1.139993 2.34 2.54.7866706.8266708 1.18 1.4933308 1.18 2 0 .533336-.33333 1.0799972-1 1.64z" fill="#fff"/><path d="m30.1456738 37.7020009 5.0137537-17.5214851" stroke="#fff" stroke-linecap="round" stroke-width="2"/></g></svg>